# xmcd
#
# Track frame offsets: 
#        182
#        14517
#        29760
#        38717
#        49425
#        62205
#        76720
#        88160
#        102225
#        113345
#
# Disc length: 1697 seconds
#
# Revision: 3
# Processed by: cddbd v1.5PL3 Copyright (c) Steve Scherf et al.
# Submitted via: ExactAudioCopy v0.90b4
#
DISCID=7c069f0a
DTITLE=The Forester Sisters - A Christmas Card
DYEAR=1900
DGENRE=Christmas
TTITLE0=An Old Christmas Card
TTITLE1=White Christmas
TTITLE2=Carol Of The Bells
TTITLE3=Rockin' Around The Christmas Tree
TTITLE4=The First Noel
TTITLE5=This Old White Doorway
TTITLE6=Away In A Manger
TTITLE7=Silent Night
TTITLE8=Little Toy Trains
TTITLE9=I'll Be Home For Christmas
EXTD=
EXTT0=
EXTT1=
EXTT2=
EXTT3=
EXTT4=
EXTT5=
EXTT6=
EXTT7=
EXTT8=
EXTT9=
PLAYORDER=
